<svg width="56" height="56" viewBox="0 0 56 56" fill="none" xmlns="http://www.w3.org/2000/svg">
<path d="M27.9994 51.3327C40.886 51.3327 51.3327 40.886 51.3327 27.9994C51.3327 15.1127 40.886 4.66602 27.9994 4.66602C15.1127 4.66602 4.66602 15.1127 4.66602 27.9994C4.66602 40.886 15.1127 51.3327 27.9994 51.3327Z" stroke="#FFF585" stroke-width="3.5"/>
<path d="M32.6663 37.332C31.3296 38.8062 29.7252 39.6654 27.9997 39.6654C26.2742 39.6654 24.6698 38.8062 23.333 37.332" stroke="#FFF585" stroke-width="3.5" stroke-linecap="round"/>
<path d="M20.9987 26.8327C20.3304 26.0956 19.5281 25.666 18.6654 25.666C17.8026 25.666 17.0004 26.0956 16.332 26.8327" stroke="#FFF585" stroke-width="3.5" stroke-linecap="round"/>
<path d="M39.6667 26.8327C38.9984 26.0956 38.196 25.666 37.3333 25.666C36.4707 25.666 35.6683 26.0956 35 26.8327" stroke="#FFF585" stroke-width="3.5" stroke-linecap="round"/>
<path d="M28 4.66602C24.1339 4.66602 21 7.80003 21 11.666C21 15.532 24.1339 18.666 28 18.666C29.7929 18.666 31.4281 17.992 32.6667 16.8836" stroke="#FFF585" stroke-width="3.5" stroke-linecap="round"/>
</svg>
