<svg width="56" height="56" viewBox="0 0 56 56" fill="none" xmlns="http://www.w3.org/2000/svg">
<path d="M16.3337 10.4993C12.4677 10.4993 9.33366 13.6334 9.33366 17.4993C9.33366 18.8262 9.70284 20.0669 10.3441 21.1242C7.11062 21.7426 4.66699 24.5857 4.66699 27.9994C4.66699 31.413 7.11062 34.256 10.3441 34.8745M16.3337 10.4993C16.3337 7.27769 18.9453 4.66602 22.167 4.66602C25.3886 4.66602 28.0003 7.27769 28.0003 10.4993V45.4994C28.0003 48.721 25.3886 51.3327 22.167 51.3327C18.9453 51.3327 16.3337 48.721 16.3337 45.4994C12.4677 45.4994 9.33366 42.3655 9.33366 38.4994C9.33366 37.1724 9.70284 35.9318 10.3441 34.8745M16.3337 10.4993C16.3337 12.4078 17.2501 14.1022 18.667 15.1664M10.3441 34.8745C11.1758 33.5032 12.4652 32.4402 14.0003 31.8977" stroke="#D7FFEB" stroke-width="3.5" stroke-linecap="round" stroke-linejoin="round"/>
<path d="M39.6667 45.4994C43.5328 45.4994 46.6667 42.3655 46.6667 38.4994C46.6667 37.1724 46.2975 35.9318 45.6563 34.8745C48.8896 34.256 51.3333 31.413 51.3333 27.9994C51.3333 24.5857 48.8896 21.7426 45.6563 21.1242M39.6667 45.4994C39.6667 48.721 37.055 51.3327 33.8333 51.3327C30.6117 51.3327 28 48.721 28 45.4994V10.4993C28 7.27769 30.6117 4.66602 33.8333 4.66602C37.055 4.66602 39.6667 7.27769 39.6667 10.4993C43.5328 10.4993 46.6667 13.6334 46.6667 17.4993C46.6667 18.8262 46.2975 20.0669 45.6563 21.1242M39.6667 45.4994C39.6667 43.5909 38.7501 41.8965 37.3333 40.8322M45.6563 21.1242C44.8245 22.4955 43.5351 23.5583 42 24.1011" stroke="#D7FFEB" stroke-width="3.5" stroke-linecap="round" stroke-linejoin="round"/>
</svg>
