<svg width="33" height="33" viewBox="0 0 33 33" fill="none" xmlns="http://www.w3.org/2000/svg">
<circle cx="16.1533" cy="16.9844" r="16" fill="white"/>
<path d="M16.1533 13.1914C15.4033 13.1914 14.6702 13.4138 14.0466 13.8305C13.423 14.2471 12.937 14.8393 12.65 15.5322C12.363 16.2251 12.2879 16.9875 12.4342 17.7231C12.5805 18.4587 12.9416 19.1343 13.472 19.6646C14.0023 20.1949 14.6779 20.5561 15.4135 20.7024C16.1491 20.8487 16.9115 20.7736 17.6044 20.4866C18.2972 20.1996 18.8895 19.7136 19.3061 19.09C19.7228 18.4664 19.9452 17.7333 19.9452 16.9833C19.9452 16.4854 19.8471 15.9923 19.6566 15.5322C19.466 15.0721 19.1867 14.6541 18.8346 14.302C18.4825 13.9499 18.0644 13.6706 17.6044 13.48C17.1443 13.2895 16.6512 13.1914 16.1533 13.1914ZM16.1533 19.445C15.6664 19.445 15.1904 19.3007 14.7856 19.0302C14.3808 18.7597 14.0652 18.3752 13.8789 17.9254C13.6926 17.4755 13.6438 16.9806 13.7388 16.503C13.8338 16.0255 14.0683 15.5869 14.4126 15.2426C14.7568 14.8983 15.1955 14.6638 15.673 14.5689C16.1506 14.4739 16.6455 14.5226 17.0953 14.709C17.5452 14.8953 17.9296 15.2108 18.2001 15.6157C18.4706 16.0205 18.615 16.4964 18.615 16.9833C18.615 17.3066 18.5514 17.6267 18.4277 17.9254C18.304 18.2241 18.1227 18.4955 17.8941 18.7241C17.6655 18.9527 17.3941 19.134 17.0954 19.2577C16.7967 19.3814 16.4765 19.4451 16.1533 19.445Z" fill="#FF3131"/>
<path d="M23.4931 13.9397C23.481 13.3271 23.365 12.721 23.1501 12.1473C22.9644 11.6546 22.6737 11.2083 22.2983 10.8391C21.9297 10.4633 21.4835 10.1726 20.9908 9.9873C20.417 9.77225 19.8109 9.65627 19.1983 9.64432C18.4109 9.60847 18.1592 9.59961 16.1538 9.59961C14.1484 9.59961 13.8965 9.60792 13.1086 9.64432C12.4961 9.65642 11.89 9.7724 11.3162 9.9873C10.8234 10.1728 10.377 10.4635 10.008 10.8391C9.63206 11.2078 9.34135 11.6543 9.1563 12.1473C8.9414 12.721 8.82542 13.3271 8.81331 13.9397C8.77691 14.7271 8.76855 14.9788 8.76855 16.9842C8.76855 18.9896 8.77691 19.2414 8.8133 20.0287C8.82541 20.6413 8.94139 21.2474 9.1563 21.8212C9.3414 22.3142 9.63211 22.7606 10.008 23.1294C10.3772 23.5048 10.8236 23.7954 11.3162 23.9811C11.89 24.1959 12.4961 24.3119 13.1086 24.3241C13.8965 24.3599 14.1478 24.3688 16.1532 24.3688C18.1586 24.3688 18.4104 24.3605 19.1977 24.3241C19.8103 24.312 20.4164 24.196 20.9902 23.9811C21.4808 23.7914 21.9264 23.5013 22.2983 23.1293C22.6703 22.7574 22.9604 22.3118 23.1501 21.8212C23.3653 21.2475 23.4813 20.6413 23.4931 20.0287C23.5289 19.2408 23.5372 18.9896 23.5372 16.9842C23.5372 14.9788 23.5289 14.7271 23.4931 13.9397ZM22.1646 19.9685C22.1589 20.4368 22.073 20.9007 21.9106 21.3399C21.7877 21.6584 21.5994 21.9476 21.358 22.1889C21.1166 22.4302 20.8273 22.6183 20.5088 22.7411C20.0696 22.9039 19.6057 22.9898 19.1374 22.9951C18.359 23.0309 18.1252 23.0381 16.1531 23.0381C14.1811 23.0381 13.9479 23.0309 13.1698 22.9951C12.7014 22.9898 12.2375 22.9038 11.7984 22.7411C11.4776 22.6225 11.1874 22.4338 10.949 22.1887C10.7035 21.9508 10.5147 21.6607 10.3966 21.3399C10.2338 20.9008 10.1478 20.4369 10.1426 19.9685C10.1067 19.1901 10.0996 18.9563 10.0996 16.9843C10.0996 15.0122 10.1074 14.7791 10.1426 14C10.1485 13.5318 10.2344 13.068 10.3966 12.6287C10.5151 12.3079 10.7038 12.0177 10.949 11.7793C11.187 11.5337 11.4773 11.3449 11.7984 11.2269C12.2375 11.0641 12.7014 10.9782 13.1698 10.9729C13.9481 10.9371 14.1819 10.9299 16.1531 10.9299C18.1243 10.9299 18.3584 10.9377 19.1374 10.9729C19.6057 10.9788 20.0695 11.0647 20.5088 11.2269C20.8274 11.3497 21.1168 11.5378 21.3582 11.7793C21.5996 12.0207 21.7878 12.3101 21.9106 12.6287C22.0734 13.0678 22.1593 13.5317 22.1646 14C22.2004 14.7791 22.2076 15.0123 22.2076 16.9843C22.2076 18.9563 22.2004 19.1895 22.1646 19.9685Z" fill="#FF3131"/>
<path d="M20.0951 12.1562C19.8602 12.1563 19.6345 12.2497 19.4684 12.4158C19.3023 12.582 19.209 12.8074 19.209 13.0423C19.209 13.2773 19.3024 13.5026 19.4685 13.6688C19.6347 13.8349 19.86 13.9282 20.095 13.9282C20.33 13.9282 20.5553 13.8349 20.7215 13.6688C20.8876 13.5026 20.981 13.2773 20.981 13.0423C20.981 12.8074 20.8877 12.582 20.7216 12.4158C20.5554 12.2497 20.3301 12.1563 20.0951 12.1562Z" fill="#FF3131"/>
</svg>
