<svg width="57" height="56" viewBox="0 0 57 56" fill="none" xmlns="http://www.w3.org/2000/svg">
<path d="M30.4313 14.0016C30.6899 13.2711 30.8303 12.485 30.8303 11.666C30.8303 7.80003 27.6964 4.66602 23.8304 4.66602C19.9645 4.66602 16.8304 7.80003 16.8304 11.666C16.8304 12.485 16.9711 13.2711 17.2295 14.0016C11.8984 14.021 9.05337 14.2103 7.21403 16.0496C5.37487 17.8888 5.18552 20.7334 5.16602 26.0636C5.89521 25.806 6.67979 25.666 7.49711 25.666C11.3631 25.666 14.4971 28.7999 14.4971 32.666C14.4971 36.5321 11.3631 39.666 7.49711 39.666C6.67979 39.666 5.89521 39.526 5.16602 39.2684C5.18552 44.5987 5.37487 47.4432 7.21403 49.2824C9.05319 51.1215 11.8979 51.311 17.228 51.3303C16.9705 50.6012 16.8304 49.8167 16.8304 48.9993C16.8304 45.1332 19.9645 41.9993 23.8304 41.9993C27.6964 41.9993 30.8303 45.1332 30.8303 48.9993C30.8303 49.8167 30.6903 50.6012 30.433 51.3303C35.763 51.311 38.6078 51.1215 40.4469 49.2824C42.2861 47.443 42.4753 44.598 42.4949 39.267C43.2252 39.5253 44.0113 39.666 44.8303 39.666C48.6964 39.666 51.8303 36.5321 51.8303 32.666C51.8303 28.7999 48.6964 25.666 44.8303 25.666C44.0113 25.666 43.2252 25.8067 42.4949 26.065C42.4753 20.734 42.2861 17.8889 40.4469 16.0496C38.6076 14.2103 35.7625 14.021 30.4313 14.0016Z" stroke="#FFC5C5" stroke-width="3.5" stroke-linejoin="round"/>
</svg>
