<svg width="249" height="244" viewBox="0 0 249 244" fill="none" xmlns="http://www.w3.org/2000/svg">
<g clip-path="url(#clip0_84_17608)">
<path fill-rule="evenodd" clip-rule="evenodd" d="M301.931 -115.534C280.967 -126.534 194.935 -69.3343 168.593 -57.5553C152.375 -50.303 59.4604 6.78706 56.8942 28.0997C52.8921 61.3444 106.823 34.1273 121.502 34.1273C125.515 34.1273 142.467 29.592 141.212 32.6214C133.396 51.4809 5.56743 167.069 32.799 191.094C50.2272 206.47 125.877 184.977 135.37 194.867C137.914 197.515 115.359 242.325 110.183 252.595C92.6014 287.471 54.8286 386.484 58.8015 391.4C68.7067 403.658 303.507 212.814 294.896 180.156C286.738 149.215 217.125 163.083 190.496 149.215C179.092 143.275 333.008 24.4157 313.931 -10.0345C308.732 -19.424 239.979 10.618 224.447 18.6581C223.658 19.0664 213.394 24.5999 212.762 22.8101C210.137 15.3686 244.811 -18.1548 265.797 -42.6699C284.86 -64.9371 313.931 -109.238 301.931 -115.534Z" fill="#FFD632"/>
</g>
<defs>
<clipPath id="clip0_84_17608">
<rect width="249" height="244" rx="24" fill="white"/>
</clipPath>
</defs>
</svg>
