<svg width="16" height="17" viewBox="0 0 16 17" fill="none" xmlns="http://www.w3.org/2000/svg">
<path fill-rule="evenodd" clip-rule="evenodd" d="M13.6 3.28438C12.1 1.78438 10.1 0.984375 8 0.984375C3.6 0.984375 0 4.58437 0 8.98438C0 10.3844 0.400006 11.7844 1.10001 12.9844L0 16.9844L4.20001 15.8844C5.40001 16.4844 6.7 16.8844 8 16.8844C12.4 16.8844 16 13.2844 16 8.88437C16 6.78438 15.1 4.78437 13.6 3.28438ZM8 15.5844C6.8 15.5844 5.60001 15.2844 4.60001 14.6844L4.39999 14.5844L1.89999 15.2844L2.60001 12.8844L2.39999 12.5844C1.69999 11.4844 1.39999 10.2844 1.39999 9.08437C1.39999 5.48438 4.4 2.48438 8 2.48438C9.8 2.48438 11.4 3.18437 12.7 4.38437C14 5.68437 14.6 7.28438 14.6 9.08437C14.6 12.5844 11.7 15.5844 8 15.5844ZM11.6 10.5844C11.4 10.4844 10.4 9.98438 10.2 9.98438C10 9.88438 9.89999 9.88438 9.79999 10.0844C9.69999 10.2844 9.30001 10.6844 9.20001 10.8844C9.10001 10.9844 8.99999 10.9844 8.79999 10.9844C8.59999 10.8844 8.00001 10.6844 7.20001 9.98438C6.60001 9.48438 6.20001 8.78438 6.10001 8.58438C6.00001 8.38438 6.10001 8.28437 6.20001 8.18437C6.30001 8.08437 6.4 7.98437 6.5 7.88437C6.6 7.78437 6.60001 7.68438 6.70001 7.58437C6.80001 7.48438 6.70001 7.38438 6.70001 7.28438C6.70001 7.18437 6.30001 6.18438 6.10001 5.78438C6.00001 5.48438 5.80001 5.48438 5.70001 5.48438C5.60001 5.48438 5.49999 5.48438 5.29999 5.48438C5.19999 5.48438 4.99999 5.48437 4.79999 5.68437C4.59999 5.88437 4.10001 6.38437 4.10001 7.38437C4.10001 8.38437 4.79999 9.28438 4.89999 9.48438C4.99999 9.58438 6.29999 11.6844 8.29999 12.4844C9.99999 13.1844 10.3 12.9844 10.7 12.9844C11.1 12.9844 11.9 12.4844 12 12.0844C12.2 11.5844 12.2 11.1844 12.1 11.1844C12 10.6844 11.8 10.6844 11.6 10.5844Z" fill="white"/>
</svg>
