<svg width="32" height="33" viewBox="0 0 32 33" fill="none" xmlns="http://www.w3.org/2000/svg">
<circle cx="16" cy="16.9844" r="16" fill="white"/>
<path fill-rule="evenodd" clip-rule="evenodd" d="M21.6 11.2844C20.1 9.78438 18.1 8.98438 16 8.98438C11.6 8.98438 8 12.5844 8 16.9844C8 18.3844 8.40001 19.7844 9.10001 20.9844L8 24.9844L12.2 23.8844C13.4 24.4844 14.7 24.8844 16 24.8844C20.4 24.8844 24 21.2844 24 16.8844C24 14.7844 23.1 12.7844 21.6 11.2844ZM16 23.5844C14.8 23.5844 13.6 23.2844 12.6 22.6844L12.4 22.5844L9.89999 23.2844L10.6 20.8844L10.4 20.5844C9.69999 19.4844 9.39999 18.2844 9.39999 17.0844C9.39999 13.4844 12.4 10.4844 16 10.4844C17.8 10.4844 19.4 11.1844 20.7 12.3844C22 13.6844 22.6 15.2844 22.6 17.0844C22.6 20.5844 19.7 23.5844 16 23.5844ZM19.6 18.5844C19.4 18.4844 18.4 17.9844 18.2 17.9844C18 17.8844 17.9 17.8844 17.8 18.0844C17.7 18.2844 17.3 18.6844 17.2 18.8844C17.1 18.9844 17 18.9844 16.8 18.9844C16.6 18.8844 16 18.6844 15.2 17.9844C14.6 17.4844 14.2 16.7844 14.1 16.5844C14 16.3844 14.1 16.2844 14.2 16.1844C14.3 16.0844 14.4 15.9844 14.5 15.8844C14.6 15.7844 14.6 15.6844 14.7 15.5844C14.8 15.4844 14.7 15.3844 14.7 15.2844C14.7 15.1844 14.3 14.1844 14.1 13.7844C14 13.4844 13.8 13.4844 13.7 13.4844C13.6 13.4844 13.5 13.4844 13.3 13.4844C13.2 13.4844 13 13.4844 12.8 13.6844C12.6 13.8844 12.1 14.3844 12.1 15.3844C12.1 16.3844 12.8 17.2844 12.9 17.4844C13 17.5844 14.3 19.6844 16.3 20.4844C18 21.1844 18.3 20.9844 18.7 20.9844C19.1 20.9844 19.9 20.4844 20 20.0844C20.2 19.5844 20.2 19.1844 20.1 19.1844C20 18.6844 19.8 18.6844 19.6 18.5844Z" fill="#FF3131"/>
</svg>
